<svg width="30px" height="29px" viewBox="0 0 30 29" xmlns="http://www.w3.org/2000/svg"><path d="M14.799,0.216 C6.894,0.216 0.487,6.624 0.487,14.528 C0.487,22.432 6.893,28.84 14.799,28.84 C22.703,28.84 29.111,22.432 29.111,14.528 C29.11,6.625 22.703,0.216 14.799,0.216 M15.687,9.298 C15.408,8.9 14.89,8.7 14.411,8.7 L14.251,8.7 C13.454,8.779 12.736,9.218 12.537,10.096 C12.497,10.295 12.377,10.495 12.139,10.534 L9.905,10.255 C9.746,10.215 9.506,10.096 9.587,9.776 C10.064,7.264 12.22,6.387 14.252,6.267 L14.731,6.267 C15.848,6.267 17.284,6.586 18.2,7.424 C19.317,8.46 19.196,9.857 19.196,11.371 L19.196,14.961 C19.196,16.037 19.635,16.516 20.074,17.074 C20.194,17.273 20.233,17.513 20.034,17.673 C19.596,18.071 18.759,18.789 18.28,19.188 C18.12,19.307 17.921,19.307 17.721,19.227 C16.963,18.589 16.844,18.31 16.406,17.712 C15.647,18.509 15.01,18.948 14.252,19.188 C13.774,19.307 13.255,19.387 12.618,19.387 C10.703,19.387 9.188,18.191 9.188,15.838 C9.188,13.964 10.184,12.688 11.66,12.09 C12.417,11.73 13.335,11.571 14.252,11.451 C14.851,11.371 15.448,11.332 15.967,11.293 L15.967,10.973 C15.965,10.416 16.005,9.776 15.687,9.298 M21.726,20.833 C21.494,21.02 21.247,21.186 20.999,21.334 L20.988,21.341 C19.104,22.526 16.675,23.251 14.526,23.299 C14.461,23.3 14.393,23.301 14.328,23.301 C10.953,23.3 8.442,21.453 6.153,19.464 C6.041,19.376 5.963,19.242 5.963,19.093 C5.962,18.979 6.011,18.867 6.093,18.791 C6.174,18.713 6.287,18.673 6.398,18.673 C6.484,18.673 6.568,18.696 6.655,18.74 C9.095,20.095 11.513,21.469 14.478,21.468 C14.544,21.468 14.614,21.467 14.683,21.466 C16.568,21.425 18.605,20.965 20.544,20.178 L20.544,20.176 L20.722,20.105 L20.859,20.048 C20.953,20.007 21.052,19.964 21.148,19.924 C21.236,19.884 21.328,19.863 21.417,19.864 C21.702,19.864 21.964,20.073 21.969,20.383 C21.97,20.558 21.87,20.725 21.726,20.833 M22.832,21.651 C22.738,21.725 22.63,21.775 22.501,21.776 L22.499,21.776 C22.412,21.776 22.311,21.747 22.233,21.672 C22.151,21.597 22.115,21.485 22.116,21.392 C22.116,21.329 22.13,21.271 22.149,21.217 C22.238,20.986 22.37,20.639 22.479,20.292 C22.588,19.947 22.67,19.591 22.667,19.401 C22.668,19.35 22.662,19.315 22.658,19.301 C22.655,19.298 22.65,19.296 22.642,19.292 C22.621,19.283 22.583,19.27 22.535,19.259 C22.435,19.238 22.29,19.226 22.128,19.226 C21.899,19.226 21.637,19.247 21.387,19.274 C21.098,19.316 20.85,19.34 20.68,19.376 L20.666,19.378 L20.65,19.38 C20.632,19.381 20.614,19.382 20.593,19.382 C20.506,19.382 20.409,19.36 20.325,19.292 C20.24,19.225 20.188,19.109 20.192,19.008 C20.197,18.825 20.299,18.706 20.42,18.614 C20.614,18.473 20.824,18.355 21.056,18.259 L21.054,18.25 L21.25,18.186 L21.256,18.185 L21.605,18.068 L21.605,18.091 C21.95,18.016 22.294,17.986 22.605,17.985 C23.04,17.987 23.4,18.039 23.646,18.134 C23.73,18.17 23.806,18.202 23.886,18.291 L23.896,18.302 L23.904,18.313 C23.982,18.432 24.023,18.575 24.03,18.764 L24.03,18.765 L24.032,18.878 C24.021,19.591 23.715,20.857 22.832,21.651"></path><path d="M15.965,13.127 C15.366,13.127 14.769,13.166 14.25,13.286 C13.293,13.565 12.536,14.164 12.536,15.44 C12.536,16.437 13.054,17.114 13.931,17.114 C14.051,17.114 14.17,17.075 14.25,17.075 C14.769,16.955 15.248,16.596 15.526,16.038 C16.005,15.239 15.964,14.523 15.964,13.606 L15.964,13.127 L15.965,13.127 Z"></path></svg>
