<svg width="19px" height="18px" viewBox="0 0 19 18" xmlns="http://www.w3.org/2000/svg"><path d="M16.707,15.329 C16.687,15.383 16.674,15.441 16.674,15.504 C16.673,15.597 16.709,15.709 16.791,15.784 C16.869,15.859 16.97,15.888 17.057,15.888 L17.059,15.888 C17.188,15.887 17.296,15.837 17.39,15.763 C18.273,14.969 18.578,13.703 18.591,12.99 L18.589,12.877 L18.589,12.876 C18.582,12.687 18.541,12.544 18.463,12.425 L18.455,12.414 L18.445,12.403 C18.365,12.314 18.289,12.282 18.205,12.246 C17.959,12.151 17.599,12.099 17.164,12.097 C16.853,12.098 16.509,12.128 16.164,12.203 L16.164,12.18 L15.815,12.297 L15.809,12.298 L15.613,12.362 L15.615,12.371 C15.384,12.467 15.174,12.585 14.979,12.726 C14.859,12.818 14.756,12.937 14.751,13.12 C14.747,13.221 14.799,13.337 14.884,13.404 C14.968,13.472 15.065,13.494 15.152,13.494 C15.173,13.494 15.191,13.493 15.209,13.492 L15.225,13.49 L15.239,13.488 C15.409,13.452 15.657,13.428 15.946,13.386 C16.196,13.359 16.458,13.338 16.687,13.338 C16.849,13.338 16.995,13.35 17.094,13.371 C17.143,13.382 17.181,13.395 17.201,13.404 C17.209,13.408 17.214,13.41 17.217,13.413 C17.221,13.427 17.227,13.462 17.226,13.513 C17.229,13.703 17.147,14.059 17.038,14.404 C16.928,14.751 16.796,15.098 16.707,15.329 L16.707,15.329 Z"></path><path d="M10.522,5.405 C10.003,5.444 9.406,5.483 8.807,5.563 C7.89,5.683 6.972,5.842 6.215,6.202 C4.739,6.8 3.743,8.076 3.743,9.95 C3.743,12.303 5.258,13.499 7.173,13.499 C7.81,13.499 8.329,13.419 8.807,13.3 C9.565,13.06 10.203,12.621 10.961,11.824 C11.399,12.422 11.519,12.701 12.276,13.339 C12.475,13.419 12.674,13.419 12.835,13.3 C13.314,12.901 14.151,12.183 14.589,11.785 C14.788,11.625 14.749,11.385 14.629,11.186 C14.191,10.628 13.751,10.149 13.751,9.073 L13.751,5.483 C13.751,3.969 13.872,2.572 12.755,1.536 C11.839,0.698 10.403,0.379 9.286,0.379 L8.807,0.379 C6.775,0.499 4.619,1.376 4.142,3.888 C4.061,4.208 4.301,4.327 4.46,4.367 L6.694,4.646 C6.932,4.607 7.052,4.407 7.092,4.208 C7.291,3.33 8.009,2.891 8.806,2.812 L8.966,2.812 C9.445,2.812 9.963,3.012 10.242,3.41 C10.56,3.888 10.52,4.527 10.52,5.085 L10.52,5.405 L10.522,5.405 Z M10.522,7.717 C10.522,8.634 10.562,9.35 10.084,10.149 C9.806,10.707 9.326,11.066 8.808,11.186 C8.728,11.186 8.609,11.225 8.489,11.225 C7.612,11.225 7.094,10.548 7.094,9.551 C7.094,8.275 7.851,7.676 8.808,7.397 C9.327,7.277 9.924,7.238 10.523,7.238 L10.523,7.717 L10.522,7.717 Z"></path><path d="M0.955,12.784 C0.845,12.784 0.731,12.824 0.65,12.902 C0.568,12.978 0.519,13.09 0.52,13.204 C0.52,13.353 0.598,13.487 0.71,13.575 C2.999,15.564 5.51,17.411 8.885,17.412 C8.95,17.412 9.018,17.411 9.083,17.41 C11.231,17.362 13.661,16.637 15.545,15.452 L15.556,15.445 C15.803,15.297 16.05,15.131 16.283,14.944 C16.428,14.836 16.527,14.669 16.525,14.494 C16.52,14.184 16.258,13.975 15.973,13.975 C15.884,13.974 15.792,13.995 15.704,14.035 C15.608,14.075 15.509,14.118 15.415,14.159 L15.278,14.216 L15.1,14.287 L15.1,14.289 C13.161,15.076 11.123,15.536 9.239,15.577 C9.17,15.578 9.1,15.579 9.034,15.579 C6.069,15.58 3.651,14.206 1.211,12.851 C1.125,12.807 1.041,12.784 0.955,12.784 L0.955,12.784 Z"></path></svg>
