<svg width="30px" height="29px" viewBox="0 0 30 29" xmlns="http://www.w3.org/2000/svg"><g id="Page-1" stroke="none" stroke-width="1" fill="none" fill-rule="evenodd"><g id="v4-circle" transform="translate(-251.000000, -72.000000)" fill="#EA4C89"><g id="Group" transform="translate(251.000000, 72.000000)"><path d="M15.011,14.987 C15.394,14.826 15.806,14.724 16.202,14.547 C16.018,14.202 15.843,13.805 15.682,13.485 C15.625,13.368 15.584,13.224 15.477,13.148 C12.926,13.887 10.1,14.349 6.801,14.34 C6.735,17.003 7.701,18.86 8.977,20.269 C10.448,17.993 12.405,16.081 15.011,14.987 L15.011,14.987 Z" id="Shape"></path><path d="M16.745,15.996 C13.807,17.055 11.501,18.745 10.065,21.305 C11.03,22.063 12.34,22.718 13.872,22.988 C15.558,23.285 17.325,22.971 18.585,22.419 C18.206,20.246 17.595,18.181 16.901,16.359 C16.856,16.242 16.862,16.08 16.745,15.996 L16.745,15.996 Z" id="Shape"></path><path d="M11.646,6.933 C9.285,8.111 7.628,9.996 6.958,12.864 C9.894,12.83 12.499,12.466 14.804,11.802 C13.806,10.123 12.804,8.451 11.646,6.933 L11.646,6.933 Z" id="Shape"></path><path d="M15.267,0.255 C7.347,0.255 0.929,6.675 0.929,14.593 C0.929,22.511 7.347,28.931 15.267,28.931 C22.486,28.931 28.456,23.594 29.455,16.651 C29.553,16.177 29.598,15.689 29.59,15.186 C29.598,14.989 29.606,14.792 29.606,14.593 C29.604,6.676 23.185,0.255 15.267,0.255 L15.267,0.255 Z M22.597,21.33 C21.806,22.196 20.867,22.892 19.749,23.454 C18.638,24.013 17.37,24.443 15.866,24.516 C12.696,24.67 10.214,23.451 8.563,21.927 C6.862,20.357 5.577,18.254 5.352,15.22 C5.233,13.607 5.549,12.181 6.026,10.973 C6.52,9.717 7.106,8.776 7.915,7.892 C9.048,6.656 10.587,5.58 12.524,5.044 C13.219,4.851 13.944,4.728 14.674,4.681 C17.916,4.472 20.313,5.778 22,7.296 C23.684,8.808 25.008,11.005 25.186,14.029 C25.376,17.21 24.153,19.633 22.597,21.33 L22.597,21.33 Z" id="Shape"></path><path d="M18.378,15.582 C19.032,17.483 19.634,19.435 20.009,21.616 C20.478,21.354 20.894,20.99 21.279,20.605 C22.451,19.433 23.316,17.913 23.66,15.945 C22.2,15.519 20.155,15.301 18.378,15.582 L18.378,15.582 Z" id="Shape"></path><path d="M16.487,11.31 C18.26,10.59 19.839,9.673 20.887,8.228 C19.494,7.056 17.487,5.997 14.932,6.131 C14.313,6.163 13.856,6.209 13.301,6.338 C14.254,7.737 15.27,9.188 16.098,10.663 C16.22,10.876 16.302,11.129 16.487,11.31 L16.487,11.31 Z" id="Shape"></path><path d="M17.108,12.604 C17.307,12.992 17.508,13.426 17.678,13.821 C17.739,13.965 17.764,14.134 17.885,14.236 C19.854,14.016 22.041,14.18 23.762,14.521 C23.696,12.196 22.924,10.577 21.846,9.264 C20.616,10.725 18.985,11.788 17.108,12.604 L17.108,12.604 Z" id="Shape"></path></g></g></g></svg>