<svg width="30px" height="30px" viewBox="0 0 30 30" xmlns="http://www.w3.org/2000/svg"><g transform="translate(-180.000000, -108.000000)"><path d="M195.175,108.772 C187.32,108.772 180.952,115.14 180.952,122.996 C180.952,130.85 187.319,137.218 195.175,137.218 C203.029,137.218 209.396,130.85 209.396,122.996 C209.396,115.141 203.028,108.772 195.175,108.772 M189.983,127.21 C187.655,127.21 185.768,125.323 185.768,122.996 C185.768,120.667 187.655,118.779 189.983,118.779 C192.311,118.779 194.2,120.667 194.2,122.996 C194.2,125.323 192.312,127.21 189.983,127.21 M200.364,127.21 C198.036,127.21 196.147,125.323 196.147,122.996 C196.147,120.667 198.036,118.779 200.364,118.779 C202.692,118.779 204.579,120.667 204.579,122.996 C204.579,125.323 202.692,127.21 200.364,127.21"></path></g></svg>
