<?xml version="1.0" encoding="UTF-8" standalone="no"?>
<svg width="30px" height="29px" viewBox="0 0 30 29" version="1.1" xmlns="http://www.w3.org/2000/svg" xmlns:xlink="http://www.w3.org/1999/xlink" xmlns:sketch="http://www.bohemiancoding.com/sketch/ns">
    <!-- Generator: Sketch 3.4.4 (17249) - http://www.bohemiancoding.com/sketch -->
    <title>Shape</title>
    <desc>Created with Sketch.</desc>
    <defs></defs>
    <g id="Page-1" stroke="none" stroke-width="1" fill="none" fill-rule="evenodd" sketch:type="MSPage">
        <g id="v4-circle" sketch:type="MSLayerGroup" transform="translate(-180.000000, -144.000000)" fill="#4183C4">
            <path d="M195.174,144.287 C187.256,144.287 180.836,150.707 180.836,158.625 C180.836,166.543 187.256,172.963 195.174,172.963 C202.393,172.963 208.363,167.626 209.363,160.683 C209.459,160.209 209.504,159.721 209.496,159.218 C209.506,159.021 209.512,158.823 209.512,158.625 C209.512,150.707 203.092,144.287 195.174,144.287 L195.174,144.287 Z M205.375,159.685 C205.41,159.696 205.43,159.733 205.42,159.768 C205.41,159.796 205.385,159.815 205.358,159.815 C205.35,159.815 205.344,159.815 205.337,159.813 C203.597,159.281 201.446,159.208 200.73,159.183 C200.175,160.401 199.103,160.94 197.416,161.192 L197.416,161.193 C197.209,161.223 196.992,161.251 196.768,161.274 C197.438,161.696 197.629,162.225 197.629,163.653 C197.629,165.082 197.609,165.274 197.613,165.602 C197.621,166.141 198.412,166.401 198.383,166.574 C198.352,166.747 197.721,166.72 197.426,166.617 C196.588,166.324 196.672,165.628 196.672,165.628 L196.645,163.718 C196.645,163.718 196.702,162.689 196.319,162.689 L196.319,165.818 C196.319,166.498 196.799,166.705 196.799,166.956 C196.799,167.389 195.926,166.915 195.66,166.644 C195.252,166.235 195.299,165.365 195.306,164.679 C195.316,164.015 195.3,162.562 195.3,162.562 L195.025,162.568 C195.025,162.568 195.138,165.741 194.879,166.318 C194.543,167.06 193.529,167.316 193.529,166.976 C193.529,166.749 193.777,166.823 193.916,166.312 C194.035,165.879 193.994,162.646 193.994,162.646 C193.994,162.646 193.67,162.837 193.67,163.444 C193.67,163.72 193.662,165.304 193.662,165.775 C193.662,166.369 192.82,166.706 192.416,166.706 C192.211,166.706 191.955,166.696 191.955,166.587 C191.955,166.313 192.725,166.152 192.725,165.582 C192.725,165.087 192.715,163.814 192.715,163.814 C192.715,163.814 192.326,163.88 191.774,163.88 C190.378,163.88 189.934,162.99 189.725,162.491 C189.452,161.843 189.096,161.537 188.721,161.293 C188.489,161.144 188.436,160.968 188.703,160.916 C189.939,160.685 190.256,162.318 191.08,162.579 C191.67,162.765 192.426,162.684 192.803,162.44 C192.852,161.94 193.213,161.508 193.512,161.282 C193.494,161.28 193.475,161.278 193.455,161.276 C191.391,161.067 190.162,160.339 189.523,159.179 C187.328,159.232 186.082,159.543 185.168,159.772 C185.104,159.789 185.037,159.805 184.975,159.821 C184.969,159.822 184.963,159.823 184.959,159.823 C184.928,159.823 184.902,159.803 184.895,159.772 C184.885,159.737 184.909,159.7 184.944,159.691 C185.005,159.675 185.071,159.66 185.137,159.644 C186.047,159.415 187.285,159.105 189.455,159.047 C189.394,158.927 189.34,158.804 189.291,158.675 C188.449,158.668 185.85,158.788 184.959,159.008 C184.953,159.011 184.947,159.011 184.943,159.011 C184.912,159.011 184.884,158.99 184.877,158.96 C184.869,158.924 184.891,158.888 184.926,158.878 C185.809,158.661 188.346,158.54 189.244,158.542 C189.043,157.947 188.953,157.267 188.953,156.505 C188.953,155.154 189.373,154.646 189.939,153.924 C189.505,152.384 190.093,151.332 190.093,151.332 C190.093,151.332 191.001,151.144 192.718,152.373 C193.65,151.976 196.13,151.94 197.306,152.285 C198.027,151.807 199.345,151.133 199.876,151.322 C200.021,151.554 200.331,152.229 200.065,153.714 C200.245,154.04 201.184,154.734 201.186,156.694 C201.172,157.417 201.096,158.028 200.957,158.544 C203.195,158.526 204.512,158.711 205.42,158.877 C205.455,158.886 205.481,158.919 205.475,158.956 C205.467,158.987 205.44,159.011 205.409,159.011 C205.405,159.011 205.399,159.011 205.397,159.009 C204.489,158.842 203.172,158.657 200.918,158.679 C200.879,158.81 200.834,158.933 200.785,159.054 C201.553,159.079 203.66,159.161 205.375,159.685 L205.375,159.685 Z" id="Shape" sketch:type="MSShapeGroup"></path>
        </g>
    </g>
</svg>