<svg width="21px" height="17px" viewBox="0 0 21 17" xmlns="http://www.w3.org/2000/svg"><g transform="translate(-181.000000, -146.000000)"><path d="M201.978,154.62 C201.98,154.622 201.986,154.622 201.99,154.622 C202.021,154.622 202.049,154.599 202.056,154.567 C202.062,154.53 202.036,154.497 202.001,154.488 C201.093,154.322 199.776,154.137 197.538,154.155 C197.677,153.639 197.753,153.028 197.767,152.305 C197.765,150.344 196.826,149.651 196.646,149.325 C196.912,147.841 196.601,147.165 196.457,146.933 C195.926,146.744 194.607,147.418 193.887,147.896 C192.711,147.551 190.231,147.586 189.299,147.984 C187.582,146.755 186.674,146.943 186.674,146.943 C186.674,146.943 186.086,147.995 186.52,149.535 C185.954,150.257 185.534,150.765 185.534,152.116 C185.534,152.878 185.624,153.558 185.825,154.153 C184.927,154.151 182.389,154.272 181.507,154.489 C181.472,154.499 181.45,154.535 181.458,154.571 C181.466,154.601 181.493,154.622 181.524,154.622 C181.528,154.622 181.534,154.622 181.54,154.619 C182.431,154.399 185.03,154.279 185.872,154.286 C185.921,154.415 185.976,154.538 186.036,154.658 C183.866,154.716 182.628,155.026 181.718,155.255 C181.652,155.271 181.585,155.286 181.525,155.302 C181.49,155.311 181.466,155.348 181.476,155.383 C181.484,155.414 181.509,155.434 181.54,155.434 C181.544,155.434 181.55,155.433 181.556,155.432 C181.618,155.416 181.685,155.4 181.749,155.383 C182.663,155.154 183.909,154.843 186.104,154.79 C186.743,155.95 187.971,156.678 190.036,156.887 C190.056,156.889 190.075,156.891 190.093,156.893 C189.794,157.12 189.433,157.551 189.384,158.051 C189.007,158.295 188.251,158.375 187.661,158.19 C186.837,157.929 186.52,156.295 185.284,156.527 C185.016,156.579 185.069,156.755 185.302,156.904 C185.677,157.148 186.032,157.454 186.306,158.102 C186.515,158.601 186.958,159.491 188.355,159.491 C188.908,159.491 189.296,159.425 189.296,159.425 C189.296,159.425 189.306,160.697 189.306,161.193 C189.306,161.763 188.536,161.923 188.536,162.198 C188.536,162.307 188.792,162.317 188.997,162.317 C189.401,162.317 190.243,161.98 190.243,161.386 C190.243,160.915 190.251,159.331 190.251,159.055 C190.251,158.449 190.575,158.257 190.575,158.257 C190.575,158.257 190.616,161.49 190.497,161.923 C190.358,162.434 190.11,162.361 190.11,162.587 C190.11,162.927 191.124,162.671 191.46,161.929 C191.72,161.352 191.606,158.179 191.606,158.179 L191.881,158.173 C191.881,158.173 191.897,159.626 191.887,160.29 C191.879,160.976 191.832,161.846 192.241,162.255 C192.507,162.526 193.38,162.999 193.38,162.567 C193.38,162.316 192.9,162.109 192.9,161.429 L192.9,158.3 C193.283,158.3 193.226,159.329 193.226,159.329 L193.253,161.239 C193.253,161.239 193.169,161.935 194.007,162.228 C194.302,162.331 194.933,162.358 194.964,162.185 C194.993,162.012 194.202,161.752 194.194,161.213 C194.19,160.885 194.21,160.692 194.21,159.264 C194.21,157.836 194.019,157.307 193.349,156.885 C193.574,156.862 193.79,156.834 193.997,156.804 L193.997,156.803 C195.685,156.551 196.757,156.012 197.311,154.794 C198.028,154.818 200.178,154.892 201.918,155.424 C201.926,155.426 201.932,155.426 201.939,155.426 C201.966,155.426 201.992,155.407 202.001,155.379 C202.011,155.344 201.991,155.307 201.956,155.296 C200.241,154.772 198.134,154.69 197.366,154.665 C197.415,154.544 197.46,154.421 197.499,154.29 C199.753,154.268 201.069,154.453 201.978,154.62 L201.978,154.62 Z"></path></g></svg>
