<svg width="15px" height="16px" viewBox="0 0 15 16" xmlns="http://www.w3.org/2000/svg"><g transform="translate(-257.000000, -182.000000)"><path d="M258.604,182.933 C257.742,182.933 257.042,183.633 257.042,184.495 L257.042,196.281 C257.042,197.144 257.741,197.843 258.604,197.843 L270.391,197.843 C271.253,197.843 271.953,197.144 271.953,196.281 L271.953,184.495 C271.953,183.633 271.253,182.933 270.391,182.933 L258.604,182.933 L258.604,182.933 Z M264.506,187.444 C266.12,187.444 267.428,188.752 267.428,190.366 C267.428,191.979 266.12,193.288 264.506,193.288 C262.893,193.288 261.585,191.979 261.585,190.366 C261.585,188.751 262.893,187.444 264.506,187.444 L264.506,187.444 Z M270.249,195.582 C270.249,195.954 269.985,196.108 269.582,196.108 L259.384,196.108 C258.981,196.108 258.717,195.954 258.717,195.582 L258.717,189.211 L259.971,189.211 C259.885,189.565 259.838,189.935 259.838,190.315 C259.838,192.884 261.921,194.968 264.491,194.968 C267.061,194.968 269.144,192.884 269.144,190.315 C269.144,189.934 269.097,189.565 269.011,189.211 L270.248,189.211 C270.249,189.21 270.249,195.209 270.249,195.582 L270.249,195.582 Z M270.265,186.997 C270.265,187.293 270.025,187.532 269.729,187.532 L267.866,187.532 C267.57,187.532 267.33,187.293 267.33,186.997 L267.33,185.134 C267.33,184.837 267.57,184.598 267.866,184.598 L269.729,184.598 C270.025,184.598 270.265,184.837 270.265,185.134 L270.265,186.997 L270.265,186.997 Z"></path></g></svg>
