<svg width="29px" height="29px" viewBox="0 0 29 29" xmlns="http://www.w3.org/2000/svg"><g id="Page-1" stroke="none" stroke-width="1" fill="none" fill-rule="evenodd"><g id="v4-circle" transform="translate(-252.000000, -180.000000)" fill="#1C587C"><g id="Group" transform="translate(252.000000, 180.000000)"><path d="M19.446,8.762 L17.6,8.762 C17.307,8.762 17.07,8.998 17.07,9.293 L17.07,11.138 C17.07,11.431 17.307,11.667 17.6,11.667 L19.446,11.667 C19.739,11.667 19.977,11.431 19.977,11.138 L19.977,9.293 C19.978,8.998 19.739,8.762 19.446,8.762 L19.446,8.762 Z" id="Shape"></path><path d="M18.867,14.424 C18.867,16.967 16.805,19.031 14.26,19.031 C11.715,19.031 9.652,16.967 9.652,14.424 C9.652,14.047 9.699,13.681 9.785,13.33 L8.543,13.33 L8.543,19.639 C8.543,20.008 8.805,20.16 9.203,20.16 L19.302,20.16 C19.701,20.16 19.962,20.009 19.962,19.639 L19.962,13.33 L18.737,13.33 C18.821,13.681 18.867,14.047 18.867,14.424 L18.867,14.424 Z" id="Shape"></path><circle id="Oval" cx="14.274" cy="14.474" r="2.894"></circle><path d="M14.267,0.424 C6.496,0.424 0.195,6.725 0.195,14.497 C0.195,22.268 6.496,28.569 14.267,28.569 C22.039,28.569 28.34,22.268 28.34,14.497 C28.34,6.725 22.039,0.424 14.267,0.424 L14.267,0.424 Z M21.649,20.332 C21.649,21.186 20.956,21.88 20.101,21.88 L8.431,21.88 C7.577,21.88 6.884,21.187 6.884,20.332 L6.884,8.661 C6.884,7.807 7.576,7.114 8.431,7.114 L20.101,7.114 C20.955,7.114 21.649,7.807 21.649,8.661 L21.649,20.332 L21.649,20.332 Z" id="Shape"></path></g></g></g></svg>