<svg width="19px" height="11px" viewBox="0 0 19 11" xmlns="http://www.w3.org/2000/svg"><g transform="translate(-362.000000, -185.000000)"><path d="M378.079,189.524 C376.696,189.071 375.706,188.903 375.706,187.796 C375.706,187.018 376.308,186.432 377.149,186.432 C377.754,186.432 378.231,186.67 378.665,187.276 L379.811,186.69 C379.227,185.653 378.381,185.132 377.211,185.132 C375.418,185.132 374.315,186.214 374.315,187.837 C374.315,189.502 375.397,190.195 377.497,190.887 C378.665,191.275 379.356,191.513 379.356,192.508 C379.356,193.524 378.448,194.33 377.126,194.283 C375.782,194.238 375.368,193.504 374.88,192.392 C374.097,190.601 373.196,188.497 373.126,188.333 C372.208,186.217 370.405,185.023 368.169,185.023 C365.206,185.023 362.808,187.425 362.808,190.387 C362.808,193.35 365.206,195.751 368.169,195.751 C369.841,195.751 371.333,194.987 372.317,193.79 L371.624,192.192 C370.974,193.434 369.669,194.284 368.169,194.284 C366.021,194.284 364.274,192.54 364.274,190.387 C364.274,188.236 366.02,186.491 368.169,186.491 C369.759,186.491 371.167,187.423 371.735,188.805 L373.446,192.707 L373.645,193.146 C374.338,194.763 375.336,195.679 377.211,195.687 C379.248,195.689 380.807,194.369 380.807,192.55 C380.808,190.823 379.942,190.131 378.079,189.524 L378.079,189.524 Z"></path></g></svg>
