<svg width="30px" height="29px" viewBox="0 0 30 29" xmlns="http://www.w3.org/2000/svg"><g transform="translate(-359.000000, -180.000000)"><path d="M374.206,180.098 C366.253,180.098 359.806,186.544 359.806,194.497 C359.806,202.451 366.253,208.896 374.206,208.896 C382.159,208.896 388.606,202.451 388.606,194.497 C388.606,186.544 382.159,180.098 374.206,180.098 L374.206,180.098 Z M379.61,199.798 C377.735,199.79 376.737,198.874 376.044,197.257 L375.845,196.818 L374.134,192.916 C373.566,191.533 372.157,190.602 370.568,190.602 C368.42,190.602 366.673,192.346 366.673,194.498 C366.673,196.651 368.419,198.395 370.568,198.395 C372.068,198.395 373.373,197.545 374.023,196.303 L374.716,197.901 C373.732,199.098 372.239,199.862 370.568,199.862 C367.605,199.862 365.207,197.462 365.207,194.498 C365.207,191.536 367.605,189.134 370.568,189.134 C372.804,189.134 374.607,190.327 375.525,192.444 C375.595,192.608 376.496,194.713 377.279,196.503 C377.767,197.614 378.181,198.349 379.525,198.394 C380.847,198.441 381.755,197.634 381.755,196.619 C381.755,195.625 381.064,195.387 379.896,194.998 C377.796,194.307 376.714,193.613 376.714,191.948 C376.714,190.325 377.818,189.243 379.61,189.243 C380.78,189.243 381.626,189.764 382.21,190.801 L381.064,191.387 C380.63,190.782 380.154,190.543 379.548,190.543 C378.706,190.543 378.105,191.129 378.105,191.907 C378.105,193.013 379.095,193.181 380.478,193.635 C382.341,194.241 383.207,194.934 383.207,196.664 C383.206,198.48 381.647,199.8 379.61,199.798 L379.61,199.798 Z"></path></g></svg>
