<svg width="30px" height="29px" viewBox="0 0 30 29" xmlns="http://www.w3.org/2000/svg"><g id="Page-1" stroke="none" stroke-width="1" fill="none" fill-rule="evenodd"><g id="v4-circle" transform="translate(-144.000000, -288.000000)" fill="#3E45F6"><path d="M159.176,288.255 C151.258,288.255 144.838,294.675 144.838,302.595 C144.838,310.513 151.258,316.931 159.176,316.931 C166.395,316.931 172.367,311.595 173.365,304.652 C173.461,304.179 173.508,303.689 173.5,303.187 C173.508,302.99 173.514,302.792 173.514,302.595 C173.514,294.675 167.096,288.255 159.176,288.255 L159.176,288.255 Z M160.045,304.459 L156.834,307.67 L157.398,304.787 L153.177,299.613 L150.947,299.642 L153.713,296.878 L156.299,294.29 L156.299,296.728 L161.293,300.832 L164.178,300.328 L161.055,303.45 L167.403,310.895 L160.045,304.459 L160.045,304.459 Z" id="Shape"></path></g></g></svg>