<svg width="14px" height="14px" viewBox="0 0 14 14" xmlns="http://www.w3.org/2000/svg"><path d="M9.1,13.548 C9.098,11.222 8.153,9.115 6.622,7.584 C5.095,6.055 2.989,5.108 0.662,5.108 L0.662,7.549 C2.256,7.551 3.765,8.176 4.891,9.307 C6.021,10.433 6.643,11.943 6.647,13.543 L6.647,13.547 L9.1,13.547 L9.1,13.548 Z"></path><path d="M13.451,13.548 C13.449,10.024 12.016,6.828 9.7,4.512 C7.383,2.194 4.19,0.761 0.667,0.759 L0.667,3.2 C6.364,3.204 10.999,7.844 11.001,13.548 L13.451,13.548 L13.451,13.548 Z"></path><path d="M1.157,10.646 C0.85,10.953 0.658,11.374 0.658,11.841 C0.658,12.307 0.85,12.728 1.157,13.035 C1.468,13.343 1.887,13.533 2.358,13.533 C2.829,13.533 3.251,13.343 3.559,13.035 L3.561,13.035 C3.87,12.727 4.058,12.306 4.059,11.841 C4.058,11.373 3.87,10.952 3.559,10.646 C3.248,10.336 2.829,10.148 2.358,10.148 C1.887,10.148 1.468,10.337 1.157,10.646 L1.157,10.646 Z"></path></svg>
