<svg width="29px" height="29px" viewBox="0 0 29 29" xmlns="http://www.w3.org/2000/svg"><g transform="translate(-288.000000, -288.000000)"><path d="M302.395,288.249 C294.474,288.249 288.051,294.671 288.051,302.595 C288.051,310.517 294.474,316.939 302.395,316.939 C310.318,316.939 316.741,310.517 316.741,302.595 C316.74,294.67 310.317,288.249 302.395,288.249 L302.395,288.249 Z M299.608,308.157 L299.606,308.157 C299.297,308.464 298.876,308.655 298.405,308.655 C297.934,308.655 297.514,308.464 297.204,308.157 C296.897,307.848 296.705,307.428 296.705,306.962 C296.705,306.496 296.897,306.073 297.204,305.767 C297.515,305.458 297.934,305.269 298.405,305.269 C298.876,305.269 299.296,305.458 299.606,305.767 C299.917,306.074 300.105,306.496 300.106,306.962 C300.105,307.429 299.917,307.849 299.608,308.157 L299.608,308.157 Z M302.694,308.669 L302.694,308.665 C302.69,307.063 302.068,305.554 300.938,304.429 C299.811,303.298 298.302,302.673 296.709,302.671 L296.709,300.23 C299.036,300.23 301.142,301.175 302.669,302.705 C304.199,304.237 305.145,306.344 305.147,308.67 L302.694,308.67 L302.694,308.669 Z M307.048,308.669 C307.046,302.963 302.411,298.325 296.714,298.321 L296.714,295.88 C300.237,295.882 303.43,297.314 305.747,299.632 C308.063,301.948 309.496,305.144 309.498,308.67 L307.048,308.67 L307.048,308.669 Z"></path></g></svg>
