<svg width="19px" height="16px" viewBox="0 0 19 16" xmlns="http://www.w3.org/2000/svg"><g transform="translate(-146.000000, -362.000000)"><path d="M164.775,364.585 C164.107,364.882 163.387,365.084 162.632,365.171 C163.403,364.71 163.993,363.979 164.274,363.109 C163.552,363.537 162.755,363.847 161.904,364.014 C161.224,363.29 160.256,362.836 159.184,362.836 C157.124,362.836 155.455,364.505 155.455,366.565 C155.455,366.857 155.488,367.143 155.552,367.417 C152.453,367.259 149.705,365.775 147.866,363.519 C147.544,364.072 147.361,364.711 147.361,365.395 C147.361,366.688 148.019,367.829 149.02,368.499 C148.409,368.48 147.833,368.311 147.33,368.033 L147.33,368.081 C147.33,369.887 148.616,371.393 150.323,371.736 C150.008,371.821 149.678,371.868 149.341,371.868 C149.101,371.868 148.865,371.845 148.638,371.8 C149.113,373.281 150.491,374.361 152.122,374.389 C150.845,375.39 149.237,375.985 147.49,375.985 C147.189,375.985 146.892,375.969 146.601,375.933 C148.251,376.994 150.209,377.61 152.316,377.61 C159.174,377.61 162.924,371.927 162.924,367 C162.924,366.838 162.921,366.678 162.914,366.519 C163.645,365.988 164.274,365.333 164.775,364.585 L164.775,364.585 Z"></path></g></svg>
