<?xml version="1.0" encoding="UTF-8" standalone="no"?>
<svg width="30px" height="29px" viewBox="0 0 30 29" version="1.1" xmlns="http://www.w3.org/2000/svg" xmlns:xlink="http://www.w3.org/1999/xlink" xmlns:sketch="http://www.bohemiancoding.com/sketch/ns">
    <!-- Generator: Sketch 3.4.4 (17249) - http://www.bohemiancoding.com/sketch -->
    <title>Shape</title>
    <desc>Created with Sketch.</desc>
    <defs></defs>
    <g id="Page-1" stroke="none" stroke-width="1" fill="none" fill-rule="evenodd" sketch:type="MSPage">
        <g id="v4-circle" sketch:type="MSLayerGroup" transform="translate(-144.000000, -360.000000)" fill="#2CA9E1">
            <path d="M159.176,360.21 C151.258,360.21 144.838,366.63 144.838,374.548 C144.838,382.466 151.258,388.886 159.176,388.886 C166.397,388.886 172.367,383.548 173.365,376.605 C173.461,376.132 173.506,375.644 173.498,375.14 C173.508,374.945 173.514,374.747 173.514,374.548 C173.514,366.63 167.096,360.21 159.176,360.21 L159.176,360.21 Z M165.775,371.946 C165.781,372.079 165.783,372.212 165.783,372.346 C165.783,376.44 162.668,381.16 156.971,381.16 C155.221,381.16 153.594,380.648 152.223,379.767 C152.465,379.796 152.711,379.81 152.961,379.81 C154.412,379.81 155.748,379.316 156.809,378.484 C155.454,378.461 154.309,377.564 153.914,376.334 C154.103,376.371 154.299,376.391 154.498,376.391 C154.779,376.391 155.053,376.352 155.314,376.282 C153.896,375.997 152.828,374.745 152.828,373.245 L152.828,373.206 C153.246,373.436 153.724,373.577 154.232,373.593 C153.4,373.036 152.853,372.089 152.853,371.015 C152.853,370.447 153.005,369.915 153.273,369.456 C154.8,371.331 157.084,372.563 159.658,372.694 C159.605,372.467 159.578,372.229 159.578,371.987 C159.578,370.276 160.965,368.889 162.676,368.889 C163.567,368.889 164.371,369.266 164.936,369.868 C165.643,369.729 166.305,369.472 166.905,369.116 C166.673,369.839 166.182,370.446 165.542,370.829 C166.169,370.757 166.767,370.589 167.321,370.343 C166.904,370.964 166.381,371.509 165.775,371.946 L165.775,371.946 Z" id="Shape" sketch:type="MSShapeGroup"></path>
        </g>
    </g>
</svg>