<svg width="29px" height="29px" viewBox="0 0 29 29" xmlns="http://www.w3.org/2000/svg"><g id="Page-1" stroke="none" stroke-width="1" fill="none" fill-rule="evenodd"><g id="v4-circle" transform="translate(-288.000000, -396.000000)" fill="#006567"><path d="M302.395,396.026 C294.464,396.026 288.033,402.456 288.033,410.389 C288.033,418.321 294.465,424.752 302.395,424.752 C310.329,424.752 316.759,418.32 316.759,410.389 C316.759,402.456 310.328,396.026 302.395,396.026 L302.395,396.026 Z M294.887,413.905 L297.474,409.628 L295.534,406.196 L298.816,406.196 L300.756,409.628 L298.169,413.905 L294.887,413.905 L294.887,413.905 Z M307.123,418.433 L303.641,418.433 L300.308,412.564 L305.48,403.46 L308.963,403.46 L303.79,412.564 L307.123,418.433 L307.123,418.433 Z" id="Shape"></path></g></g></svg>